<mxfile host="app.diagrams.net" modified="2020-09-19T12:45:14.156Z" agent="5.0 (Windows NT 10.0; Win64; x64) AppleWebKit/537.36 (KHTML, like Gecko) Chrome/85.0.4183.102 Safari/537.36" etag="G1uJeW2v8wsJEsWunOtx" version="13.7.3" type="github">
  <diagram id="C5RBs43oDa-KdzZeNtuy" name="Page-1">
    <mxGraphModel dx="1662" dy="794" grid="1" gridSize="10" guides="1" tooltips="1" connect="1" arrows="1" fold="1" page="1" pageScale="1" pageWidth="827" pageHeight="1169" math="0" shadow="0">
      <root>
        <mxCell id="WIyWlLk6GJQsqaUBKTNV-0" />
        <mxCell id="WIyWlLk6GJQsqaUBKTNV-1" parent="WIyWlLk6GJQsqaUBKTNV-0" />
        <mxCell id="zkfFHV4jXpPFQw0GAbJ--0" value="interface Movable" style="swimlane;fontStyle=2;align=center;verticalAlign=top;childLayout=stackLayout;horizontal=1;startSize=26;horizontalStack=0;resizeParent=1;resizeLast=0;collapsible=1;marginBottom=0;rounded=0;shadow=0;strokeWidth=1;" parent="WIyWlLk6GJQsqaUBKTNV-1" vertex="1">
          <mxGeometry x="334" y="80" width="160" height="88" as="geometry">
            <mxRectangle x="230" y="140" width="160" height="26" as="alternateBounds" />
          </mxGeometry>
        </mxCell>
        <mxCell id="zkfFHV4jXpPFQw0GAbJ--1" value="+speedcheck(): void&#xa;+setspeed(int speed): void&#xa;+setpoints(int x, int y): void" style="text;align=left;verticalAlign=top;spacingLeft=4;spacingRight=4;overflow=hidden;rotatable=0;points=[[0,0.5],[1,0.5]];portConstraint=eastwest;" parent="zkfFHV4jXpPFQw0GAbJ--0" vertex="1">
          <mxGeometry y="26" width="160" height="54" as="geometry" />
        </mxCell>
        <mxCell id="zkfFHV4jXpPFQw0GAbJ--4" value="" style="line;html=1;strokeWidth=1;align=left;verticalAlign=middle;spacingTop=-1;spacingLeft=3;spacingRight=3;rotatable=0;labelPosition=right;points=[];portConstraint=eastwest;" parent="zkfFHV4jXpPFQw0GAbJ--0" vertex="1">
          <mxGeometry y="80" width="160" height="8" as="geometry" />
        </mxCell>
        <mxCell id="MTOR6vwx7zbdhokv8k1B-4" value="class MovablePoints" style="swimlane;fontStyle=1;align=center;verticalAlign=top;childLayout=stackLayout;horizontal=1;startSize=26;horizontalStack=0;resizeParent=1;resizeParentMax=0;resizeLast=0;collapsible=1;marginBottom=0;" vertex="1" parent="WIyWlLk6GJQsqaUBKTNV-1">
          <mxGeometry x="480" y="220" width="270" height="120" as="geometry" />
        </mxCell>
        <mxCell id="MTOR6vwx7zbdhokv8k1B-5" value="# x,y: int" style="text;strokeColor=none;fillColor=none;align=left;verticalAlign=top;spacingLeft=4;spacingRight=4;overflow=hidden;rotatable=0;points=[[0,0.5],[1,0.5]];portConstraint=eastwest;" vertex="1" parent="MTOR6vwx7zbdhokv8k1B-4">
          <mxGeometry y="26" width="270" height="34" as="geometry" />
        </mxCell>
        <mxCell id="MTOR6vwx7zbdhokv8k1B-6" value="" style="line;strokeWidth=1;fillColor=none;align=left;verticalAlign=middle;spacingTop=-1;spacingLeft=3;spacingRight=3;rotatable=0;labelPosition=right;points=[];portConstraint=eastwest;" vertex="1" parent="MTOR6vwx7zbdhokv8k1B-4">
          <mxGeometry y="60" width="270" height="8" as="geometry" />
        </mxCell>
        <mxCell id="MTOR6vwx7zbdhokv8k1B-7" value="+ speedcheck(): void&#xa;+ setspeed(int speed): void&#xa;+ setpoints(int x, int y): void" style="text;strokeColor=none;fillColor=none;align=left;verticalAlign=top;spacingLeft=4;spacingRight=4;overflow=hidden;rotatable=0;points=[[0,0.5],[1,0.5]];portConstraint=eastwest;" vertex="1" parent="MTOR6vwx7zbdhokv8k1B-4">
          <mxGeometry y="68" width="270" height="52" as="geometry" />
        </mxCell>
        <mxCell id="MTOR6vwx7zbdhokv8k1B-0" value="class MovableRectangle" style="swimlane;fontStyle=1;align=center;verticalAlign=top;childLayout=stackLayout;horizontal=1;startSize=26;horizontalStack=0;resizeParent=1;resizeParentMax=0;resizeLast=0;collapsible=1;marginBottom=0;" vertex="1" parent="WIyWlLk6GJQsqaUBKTNV-1">
          <mxGeometry x="110" y="220" width="270" height="160" as="geometry" />
        </mxCell>
        <mxCell id="MTOR6vwx7zbdhokv8k1B-1" value="# speed: int&#xa;- width, height: int" style="text;strokeColor=none;fillColor=none;align=left;verticalAlign=top;spacingLeft=4;spacingRight=4;overflow=hidden;rotatable=0;points=[[0,0.5],[1,0.5]];portConstraint=eastwest;" vertex="1" parent="MTOR6vwx7zbdhokv8k1B-0">
          <mxGeometry y="26" width="270" height="34" as="geometry" />
        </mxCell>
        <mxCell id="MTOR6vwx7zbdhokv8k1B-2" value="" style="line;strokeWidth=1;fillColor=none;align=left;verticalAlign=middle;spacingTop=-1;spacingLeft=3;spacingRight=3;rotatable=0;labelPosition=right;points=[];portConstraint=eastwest;" vertex="1" parent="MTOR6vwx7zbdhokv8k1B-0">
          <mxGeometry y="60" width="270" height="8" as="geometry" />
        </mxCell>
        <mxCell id="MTOR6vwx7zbdhokv8k1B-3" value="+ MovableRectangle(int height, int width): void&#xa;+ speedcheck(): void&#xa;+ setspeed(): void&#xa;+ setpoints(): void&#xa;+ getheight(): int&#xa;+ getwidth(): int" style="text;strokeColor=none;fillColor=none;align=left;verticalAlign=top;spacingLeft=4;spacingRight=4;overflow=hidden;rotatable=0;points=[[0,0.5],[1,0.5]];portConstraint=eastwest;" vertex="1" parent="MTOR6vwx7zbdhokv8k1B-0">
          <mxGeometry y="68" width="270" height="92" as="geometry" />
        </mxCell>
        <mxCell id="MTOR6vwx7zbdhokv8k1B-8" value="" style="endArrow=open;endSize=12;dashed=1;html=1;" edge="1" parent="WIyWlLk6GJQsqaUBKTNV-1" source="MTOR6vwx7zbdhokv8k1B-0" target="zkfFHV4jXpPFQw0GAbJ--0">
          <mxGeometry width="160" relative="1" as="geometry">
            <mxPoint x="610" y="440" as="sourcePoint" />
            <mxPoint x="770" y="440" as="targetPoint" />
            <Array as="points">
              <mxPoint x="245" y="124" />
            </Array>
          </mxGeometry>
        </mxCell>
        <mxCell id="MTOR6vwx7zbdhokv8k1B-9" value="" style="endArrow=open;endSize=12;dashed=1;html=1;" edge="1" parent="WIyWlLk6GJQsqaUBKTNV-1" source="MTOR6vwx7zbdhokv8k1B-4" target="zkfFHV4jXpPFQw0GAbJ--0">
          <mxGeometry width="160" relative="1" as="geometry">
            <mxPoint x="610" y="440" as="sourcePoint" />
            <mxPoint x="770" y="440" as="targetPoint" />
            <Array as="points">
              <mxPoint x="615" y="124" />
            </Array>
          </mxGeometry>
        </mxCell>
      </root>
    </mxGraphModel>
  </diagram>
</mxfile>
